<?xml version="1.0" encoding="UTF-8" standalone="no"?><svg xmlns="http://www.w3.org/2000/svg" xmlns:xlink="http://www.w3.org/1999/xlink" fill="#000000" height="73.7" preserveAspectRatio="xMidYMid meet" version="1" viewBox="13.1 13.1 73.7 73.7" width="73.7" zoomAndPan="magnify"><g><g id="change1_1"><path d="M50,70.86v16c-20.33,0-36.86-16.53-36.86-36.86h16C29.14,61.5,38.5,70.86,50,70.86z" fill="#efec96"/></g><g id="change2_1"><path d="M86.86,50c0,20.33-16.53,36.86-36.86,36.86v-16c11.5,0,20.86-9.36,20.86-20.86H86.86z" fill="#f1ec5e"/></g><g id="change3_1"><path d="M86.86,50h-16c0-11.5-9.36-20.86-20.86-20.86v-16C70.33,13.14,86.86,29.67,86.86,50z" fill="#e6df16"/></g><g id="change4_1"><path d="M50,13.14v16c-11.5,0-20.86,9.36-20.86,20.86h-16C13.14,29.67,29.67,13.14,50,13.14z" fill="#f1ec5e"/></g></g></svg>